<?xml version="1.0" encoding="UTF-8" standalone="no"?>
<!-- Created with Inkscape (http://www.inkscape.org/) -->

<svg
   version="1.1"
   id="svg1"
   width="682.66669"
   height="682.66669"
   viewBox="0 0 682.66669 682.66669"
   sodipodi:docname="crt.svg"
   inkscape:version="1.3.2 (091e20e, 2023-11-25, custom)"
   xmlns:inkscape="http://www.inkscape.org/namespaces/inkscape"
   xmlns:sodipodi="http://sodipodi.sourceforge.net/DTD/sodipodi-0.dtd"
   xmlns="http://www.w3.org/2000/svg"
   xmlns:svg="http://www.w3.org/2000/svg">
  <defs
     id="defs1" />
  <sodipodi:namedview
     id="namedview1"
     pagecolor="#d9ffff"
     bordercolor="#000000"
     borderopacity="0.25"
     inkscape:showpageshadow="2"
     inkscape:pageopacity="0.0"
     inkscape:pagecheckerboard="0"
     inkscape:deskcolor="#d1d1d1"
     showgrid="false"
     inkscape:zoom="1.7446289"
     inkscape:cx="341.04675"
     inkscape:cy="341.33334"
     inkscape:window-width="2560"
     inkscape:window-height="1387"
     inkscape:window-x="1912"
     inkscape:window-y="10"
     inkscape:window-maximized="1"
     inkscape:current-layer="layer1"
     inkscape:export-bgcolor="#ffffffff" />
  <g
     inkscape:groupmode="layer"
     id="layer1"
     inkscape:label="background">
    <rect
       style="fill:#ffffff"
       id="rect4"
       width="666.04425"
       height="663.17828"
       x="9.7441931"
       y="10.317381"
       rx="5"
       ry="5" />
  </g>
  <g
     inkscape:groupmode="layer"
     inkscape:label="Image"
     id="g1"
     style="display:inline">
    <path
       style="fill:#008000;stroke-width:0.573188"
       d="m 169.09041,478.88309 c -19.19671,-0.27599 -29.4915,-0.63386 -30.56562,-1.0625 -4.25648,-1.69861 -14.58339,-10.07852 -16.39717,-13.3057 -1.79555,-3.19475 -2.75452,-8.60787 -3.59527,-20.29433 -1.0778,-14.98149 -1.0778,-276.19792 0,-291.17941 0.78336,-10.88868 1.7548,-16.84479 3.20468,-19.64855 1.70291,-3.29307 9.93357,-10.16044 15.63443,-13.04481 l 3.00689,-1.52135 23.67033,-0.54594 c 34.58498,-0.79768 360.95533,-0.30142 369.87577,0.56241 8.87721,0.85964 14.5189,2.09784 16.82221,3.692 2.52085,1.74473 8.79676,9.59268 11.04635,13.81332 l 1.84996,3.4709 0.45413,11.7697 c 0.24977,6.47333 0.62237,55.4896 0.82802,108.92503 0.37826,98.2916 -0.3262,190.37593 -1.50173,196.29912 -0.78052,3.93289 -3.55113,8.31456 -8.30407,13.13272 -4.85455,4.92117 -9.60347,7.60198 -15.00542,8.47072 -4.59138,0.73838 -324.16684,1.14034 -371.02349,0.46667 z m 370.1484,-235.18753 c 4.92509,-3.4131 6.35899,-9.68077 3.24896,-14.20147 -3.88414,-5.64591 -40.96834,-42.72962 -46.61476,-46.61411 -6.40832,-4.40865 -15.33214,0.31516 -15.97426,8.45595 -0.20522,2.60175 -6.1e-4,3.33409 1.63187,5.84068 2.43135,3.73323 42.92872,44.2306 46.66195,46.66195 2.50792,1.63333 3.23814,1.83715 5.84537,1.63148 2.01874,-0.15925 3.6957,-0.73141 5.20087,-1.77448 z m -63.65754,-64.34681 c 2.57622,-2.04954 4.75012,-6.02335 4.75012,-8.68307 0,-3.49831 -2.29305,-6.57982 -12.82975,-17.24127 -12.36941,-12.51586 -14.86903,-14.50234 -18.71338,-14.87174 -6.21731,-0.5974 -11.44596,4.34161 -11.44596,10.81192 0,2.96104 0.23279,3.57548 2.50905,6.62274 2.96081,3.96367 20.1434,21.01878 23.85759,23.68058 2.36838,1.69732 2.87061,1.83049 6.14045,1.62817 2.90569,-0.17979 3.96064,-0.5382 5.73188,-1.94733 z m 62.63172,0.92411 c 2.81723,-1.43725 4.94634,-4.19843 5.6491,-7.32618 1.21435,-5.40468 -0.5459,-8.0675 -14.34044,-21.69355 -10.51468,-10.38625 -13.82895,-12.83474 -17.34726,-12.81568 -5.33225,0.0289 -10.17574,4.27115 -10.97701,9.61442 -0.66308,4.42171 1.30476,7.2879 13.20069,19.22702 5.70441,5.72513 11.63741,11.24762 13.18443,12.27219 3.40464,2.25485 7.12966,2.50777 10.63049,0.72178 z"
       id="path2" />
    <path
       style="fill:#b3b3b3;stroke-width:0.573188"
       d="M 75.087604,298.63085 V 74.80101 H 341.33334 607.57908 V 298.63085 522.46069 H 341.33334 75.087604 Z M 554.55921,496.84208 c 16.39635,-8.42651 25.36271,-18.57035 29.81873,-33.73461 1.4758,-5.02227 1.5192,-5.64992 2.05936,-29.77748 0.3349,-14.9594 0.39946,-78.1489 0.16426,-160.76467 l -0.38751,-136.11758 -2.4943,-5.37412 C 576.31763,115.1253 569.64557,108.1465 554.37832,100.38323 L 546.9031,96.582147 H 341.36612 135.82914 l -7.35419,3.685193 c -15.2945,7.66409 -21.62481,14.30113 -29.496833,30.92612 l -2.682564,5.66532 0.0082,161.99211 0.0082,161.99211 2.812321,5.84796 c 8.035326,16.70871 18.482576,26.75883 33.675886,32.39578 3.22784,1.19757 4.39667,1.24773 37.43654,1.60664 18.75757,0.20375 111.09813,0.34848 205.20124,0.32161 l 171.09656,-0.0488 z"
       id="path3" />
    <text
       xml:space="preserve"
       style="font-style:normal;font-variant:normal;font-weight:bold;font-stretch:normal;font-size:488.82px;font-family:Industry;-inkscape-font-specification:'Industry Bold';fill:#000000;stroke-width:2.54595"
       x="150.03261"
       y="510.24182"
       id="text4"
       transform="scale(1.1169167,0.89532193)"><tspan
         sodipodi:role="line"
         id="tspan4"
         x="150.03261"
         y="510.24182"
         style="stroke-width:2.54595">X</tspan></text>
    <path
       style="fill:#000000"
       d="M 163.27273,626.06062 C 161.20975,623.99764 160,621.26452 160,618.66669 c 0,-2.59784 1.20975,-5.33096 3.27273,-7.39394 3.27222,-3.27222 3.27722,-3.27273 32,-3.27273 h 28.72728 v -10.66667 -10.66667 h -39.39394 -39.39394 l -3.27273,-3.27272 c -3.1526,-3.1526 -3.27273,-3.93566 -3.27273,-21.33334 v -18.0606 H 99.27273 59.87879 l -3.272728,-3.27273 -3.272727,-3.27273 V 298.66668 59.87879 l 3.272727,-3.272728 3.272728,-3.272727 H 341.33334 622.7879 l 3.27272,3.272727 3.27273,3.272728 v 238.78789 238.78788 l -3.27273,3.27273 -3.27272,3.27273 h -39.39394 -39.39394 v 18.0606 c 0,17.39768 -0.12013,18.18074 -3.27273,21.33334 -3.27222,3.27221 -3.27722,3.27272 -32,3.27272 h -28.72728 v 10.66667 10.66667 h 28.72728 c 28.72278,0 28.72778,5.1e-4 32,3.27273 4.32979,4.32979 4.32979,10.45808 0,14.78787 l -3.27273,3.27273 H 352.00001 166.54546 Z M 458.66668,597.33335 V 586.66668 H 352.00001 245.33334 v 10.66667 10.66667 h 106.66667 106.66667 z m 64,-42.66667 V 544.00002 H 341.33334 160 v 10.66666 10.66667 h 181.33334 181.33334 z m 85.33334,-256 V 74.666669 H 341.33334 74.666669 v 224.000011 224 H 341.33334 608.00002 Z M 136.99457,499.89643 c -14.87736,-3.53797 -28.11602,-14.38238 -35.29811,-28.91436 L 96.66667,460.80498 V 298.66668 136.52837 l 5.02979,-10.17709 C 107.63661,114.3322 115.30209,106.88997 128,100.81381 l 8.66667,-4.14714 h 204.73582 204.73583 l 10.17709,5.02979 c 12.01908,5.94015 19.4613,13.60563 25.53746,26.30354 l 4.14715,8.66667 0.41418,157.33334 c 0.30863,117.24055 0.0132,159.20207 -1.1594,164.66667 -3.57834,16.67611 -13.485,29.33212 -28.93893,36.97021 l -10.17662,5.02979 -202.06963,0.21005 c -114.73623,0.11926 -204.23294,-0.30442 -207.07505,-0.9803 z m 407.41892,-22.01641 c 7.54262,-2.57003 17.01178,-12.47872 19.3348,-20.23225 2.27947,-7.60821 2.27947,-310.35398 0,-317.96219 -0.87179,-2.90976 -4.17884,-8.17537 -7.34901,-11.70136 -10.36791,-11.53161 7.39536,-10.65088 -214.81543,-10.65088 -148.03223,0 -197.9149,0.39162 -201.89827,1.58506 -2.90976,0.87179 -8.17537,4.17884 -11.70136,7.34901 -11.42208,10.26943 -10.65088,-2.21342 -10.65088,172.39927 0,174.66175 -0.77677,162.12482 10.68339,172.4285 3.54388,3.18625 8.43988,6.43205 10.88001,7.21289 3.0472,0.9751 66.2651,1.46234 201.86575,1.55583 177.19275,0.12216 198.06689,-0.0812 203.651,-1.98388 z M 504.37335,220.96001 c -21.6569,-21.6569 -24.37334,-24.85859 -24.37334,-28.72728 0,-5.83993 5.05946,-10.89939 10.8994,-10.89939 3.86869,0 7.07037,2.71644 28.72727,24.37333 21.6569,21.6569 24.37334,24.85859 24.37334,28.72728 0,5.83993 -5.05946,10.89939 -10.8994,10.89939 -3.86869,0 -7.07037,-2.71644 -28.72727,-24.37333 z M 451.06978,167.5969 c -11.77896,-11.77895 -13.73643,-14.35264 -13.73643,-18.0606 0,-5.79422 5.0754,-10.86963 10.86962,-10.86963 3.70797,0 6.28165,1.95748 18.06061,13.73644 11.77896,11.77895 13.73643,14.35264 13.73643,18.0606 0,5.79422 -5.0754,10.86963 -10.86962,10.86963 -3.70797,0 -6.28165,-1.95748 -18.06061,-13.73644 z m 64,0 c -11.77895,-11.77895 -13.73643,-14.35264 -13.73643,-18.0606 0,-5.79422 5.0754,-10.86963 10.86963,-10.86963 3.70796,0 6.28164,1.95748 18.0606,13.73644 11.77896,11.77895 13.73644,14.35264 13.73644,18.0606 0,5.79422 -5.07541,10.86963 -10.86963,10.86963 -3.70797,0 -6.28165,-1.95748 -18.06061,-13.73644 z"
       id="path1" />
    <path
       style="fill:#666666;stroke-width:0.573188"
       d="M 160.49259,554.55921 V 544.24183 H 341.33334 522.1741 v 10.31738 10.31738 H 341.33334 160.49259 Z"
       id="path4" />
  </g>
</svg>
